# xmcd
#
# Track frame offsets: 
#        150
#        19510
#        41639
#        74601
#        94508
#        113191
#        134009
#        155899
#        178496
#        190381
#        214650
#
# Disc length: 3052 seconds
#
# Revision: 1
# Processed by: cddbd v1.5.2PL0 Copyright (c) Steve Scherf et al.
# Submitted via: ExactAudioCopyFreeDBPlugin 1.0
#
DISCID=a70bea0b
DTITLE=Delta Blues Band - Checken`in
DYEAR=2010
DGENRE=Rock
TTITLE0=Yonder`s Wall
TTITLE1=Mean Red Spider
TTITLE2=She`s Gone
TTITLE3=Veteran Blues
TTITLE4=From Four Untill Late
TTITLE5=Devil Ride
TTITLE6=Motherless Children
TTITLE7=Blues Mann
TTITLE8=Flying My Harmonica
TTITLE9=Take Mee Home
TTITLE10=little Fingers
EXTD=LongLife records
EXTT0=
EXTT1=
EXTT2=
EXTT3=
EXTT4=
EXTT5=
EXTT6=
EXTT7=
EXTT8=
EXTT9=
EXTT10=
PLAYORDER=
